<?xml version="1.0" encoding="utf-8"?>
<svg xmlns="http://www.w3.org/2000/svg" viewBox="75 75 75 75" xmlns:bx="https://boxy-svg.com" width="75px" height="75px"><defs><bx:export><bx:file format="svg"/></bx:export></defs><ellipse style="fill: rgb(121, 204, 255); stroke: rgb(5, 45, 169); stroke-width: 4px;" cx="37.5" rx="35.5" ry="35.5" cy="37.5"/><g transform="matrix(1.009834, 0, 0, 1.006231, 0.970499, 0.71537)" style=""><g transform="matrix(1, 0, 0, 1, 0, 0.993808)"><rect x="17.754" y="14.781" width="37.963" height="7.238" style="stroke: rgb(255, 255, 255); stroke-width: 0px; fill: rgb(151, 110, 51);"/><path style="stroke: rgb(255, 255, 255); stroke-width: 0px; fill: rgb(151, 110, 51);" d="M 21.401 14.314 L 23.02 8.019 C 23.02 8.019 50.419 8.848 50.433 8.848 C 50.447 8.848 52.053 14.451 52.053 14.451 L 21.401 14.314 Z"/><path style="stroke: rgb(0, 0, 0); fill: rgb(255, 255, 255);" d="M 21.075 22.118 L 52.434 22.069 C 52.434 22.069 48.19 65.535 48.19 65.549 C 48.19 65.563 25.084 65.558 25.084 65.558 L 21.075 22.118 Z"/></g><path class="dashing_een" d="M 54.997 14.69 L 52.071 14.69 L 50.491 8.948 C 50.369 8.586 50.029 8.339 49.645 8.339 L 22.892 8.339 C 22.509 8.339 22.167 8.586 22.047 8.948 L 20.468 14.69 L 17.542 14.69 C 17.05 14.69 16.65 15.088 16.65 15.581 L 16.65 22.717 C 16.65 23.209 17.05 23.609 17.542 23.609 L 20.288 23.609 L 23.788 65.595 C 23.826 66.059 24.212 66.413 24.676 66.413 L 47.862 66.413 C 48.325 66.413 48.712 66.059 48.75 65.595 L 52.249 23.609 L 54.997 23.609 C 55.488 23.609 55.887 23.209 55.887 22.717 L 55.887 15.581 C 55.887 15.088 55.488 14.69 54.997 14.69 Z M 23.533 10.124 L 49.004 10.124 L 50.193 14.69 L 22.347 14.69 L 23.533 10.124 Z M 47.041 64.629 L 25.497 64.629 C 25.473 64.629 21.091 23.609 22.078 23.609 L 50.458 23.609 L 47.041 64.629 Z M 54.104 21.824 L 18.434 21.824 L 18.434 16.473 L 21.109 16.473 L 51.429 16.473 L 54.104 16.473 L 54.104 21.824 Z" style="fill: rgb(11, 23, 25); paint-order: fill; stroke-width: 1.98406px; stroke: rgb(0, 0, 0);"/></g><ellipse style="stroke-width: 4px; fill: rgb(218, 106, 237); stroke: rgb(124, 59, 135);" cx="112.5" rx="35.5" ry="35.5" cy="37.5"/><rect x="94.08" y="23.113" width="38.414" height="37.586" style="stroke: rgb(255, 255, 255); fill: rgb(255, 255, 255);"/><path d="M 103.045 10.003 L 112.76 20.595 L 102.947 20.595 L 103.045 10.003 Z" bx:shape="triangle 102.947 10.003 9.813 10.592 0.01 0 1@108434ae" style="fill: rgb(255, 255, 255); stroke: rgb(255, 255, 255);"/><path d="M -122.09 11.33 L -114.147 19.851 L -122.17 19.851 L -122.09 11.33 Z" bx:shape="triangle -122.17 11.33 8.023 8.521 0.01 0 1@22d89809" style="fill: rgb(255, 255, 255); stroke: rgb(255, 255, 255);" transform="matrix(-1, 0, 0, 1, 0, 0)"/><path d="M 131.594 20.604 L 122.65 20.604 C 125.345 17.976 127.021 14.307 127.021 10.255 C 127.021 9.121 126.101 8.2 124.967 8.2 C 119.706 8.2 115.094 11.025 112.563 15.235 C 110.034 11.025 105.421 8.2 100.161 8.2 C 99.025 8.2 98.105 9.121 98.105 10.255 C 98.105 14.307 99.781 17.976 102.476 20.604 L 93.534 20.604 C 92.398 20.604 91.478 21.523 91.478 22.658 L 91.478 60.718 C 91.478 61.854 92.398 62.774 93.534 62.774 L 131.594 62.774 C 132.729 62.774 133.648 61.854 133.648 60.718 L 133.648 22.658 C 133.648 21.523 132.729 20.604 131.594 20.604 Z M 129.538 39.633 L 114.619 39.633 L 114.619 24.714 L 129.538 24.714 L 129.538 39.633 Z M 122.649 12.573 C 121.765 16.422 118.729 19.458 114.88 20.342 C 115.765 16.494 118.801 13.456 122.649 12.573 Z M 110.247 20.342 C 106.398 19.458 103.361 16.42 102.478 12.573 C 106.325 13.456 109.363 16.494 110.247 20.342 Z M 110.507 24.714 L 110.507 39.633 L 95.589 39.633 L 95.589 24.714 L 110.507 24.714 Z M 95.589 43.744 L 110.507 43.744 L 110.507 58.663 L 95.589 58.663 L 95.589 43.744 Z M 114.619 58.663 L 114.619 43.744 L 129.538 43.744 L 129.538 58.663 L 114.619 58.663 Z" style=""/><ellipse style="stroke-width: 4px; stroke: rgb(172, 34, 21); fill: rgb(239, 50, 33);" cx="37.5" rx="35.5" ry="35.5" cy="112.5"/><ellipse style="stroke: rgb(255, 255, 255); fill: rgb(255, 255, 255);" cx="55.126" cy="104.476" rx="11.251" ry="6.315"/><ellipse style="stroke-width: 4px; fill: rgb(255, 239, 55); stroke: rgb(205, 192, 45);" cx="112.5" rx="35.5" ry="35.5" cy="112.5"/><title>balloons</title><ellipse style="fill: rgb(255, 255, 255); stroke: rgb(255, 255, 255);" cx="104.204" cy="105.027" rx="13.001" ry="13.254"/><ellipse style="stroke: rgb(255, 255, 255); fill: rgb(255, 255, 255);" cx="121.066" cy="101.023" rx="11.925" ry="13.944"/><ellipse style="fill: rgb(255, 255, 255); stroke: rgb(255, 255, 255);" cx="108.845" cy="89.424" rx="10.01" ry="7.086"/><path d="M 135.281 98.065 C 135.281 89.628 129.626 84.159 120.818 84.159 C 120.727 84.159 120.727 84.159 120.634 84.159 C 118.037 82.212 114.7 81.1 110.807 81.1 C 104.039 81.1 98.941 84.345 97.086 89.907 C 92.173 91.947 89.299 96.489 89.299 102.422 C 89.299 110.21 94.12 119.109 100.702 121.334 C 98.662 125.599 100.609 128.751 102.093 131.161 C 103.853 134.034 104.966 135.889 102.278 139.505 C 101.629 140.339 101.814 141.544 102.648 142.193 C 103.019 142.471 103.39 142.564 103.761 142.564 C 104.317 142.564 104.966 142.286 105.338 141.822 C 109.602 136.074 107.098 132.088 105.338 129.122 C 103.669 126.433 102.648 124.765 104.781 121.706 C 105.708 121.613 106.635 121.334 107.562 120.963 C 108.026 121.89 108.49 122.818 109.045 123.652 C 110.807 126.525 111.919 128.38 109.231 131.996 C 108.581 132.829 108.767 134.034 109.602 134.684 C 109.973 134.962 110.343 135.055 110.714 135.055 C 111.271 135.055 111.919 134.777 112.29 134.313 C 116.554 128.565 114.052 124.579 112.29 121.613 C 111.733 120.685 111.178 119.758 110.807 118.924 C 112.012 117.904 113.124 116.606 114.144 115.216 C 115.256 115.957 116.369 116.606 117.482 116.977 C 115.442 121.242 117.389 124.394 118.872 126.804 C 120.634 129.677 121.746 131.532 119.058 135.148 C 118.409 135.982 118.594 137.186 119.428 137.836 C 119.799 138.114 120.17 138.207 120.541 138.207 C 121.097 138.207 121.746 137.929 122.117 137.465 C 126.381 131.717 123.878 127.731 122.117 124.765 C 120.448 122.076 119.428 120.407 121.561 117.348 C 129.533 116.514 135.281 106.686 135.281 98.065 Z M 110.807 84.993 C 112.104 84.993 113.217 85.179 114.33 85.364 C 112.197 86.199 110.343 87.59 109.045 89.258 C 107.469 88.795 105.708 88.516 103.853 88.516 C 103.298 88.516 102.648 88.516 102.093 88.609 C 104.503 85.457 108.767 84.993 110.807 84.993 Z M 93.192 102.422 C 93.192 97.787 95.418 94.542 99.311 93.152 C 99.311 93.152 99.311 93.152 99.403 93.152 C 100.702 92.688 102.185 92.503 103.853 92.503 C 110.528 92.503 114.515 96.211 114.515 102.515 C 114.515 109.467 109.602 117.997 103.853 117.997 C 98.106 117.997 93.192 109.467 93.192 102.422 Z M 112.661 91.02 C 114.515 89.166 117.296 88.145 120.727 88.145 C 127.401 88.145 131.388 91.854 131.388 98.158 C 131.388 105.11 126.474 113.64 120.727 113.64 C 118.965 113.64 117.389 112.805 116.183 111.878 C 117.482 108.912 118.316 105.667 118.316 102.515 C 118.316 97.416 116.276 93.43 112.661 91.02 Z" style=""/><ellipse style="fill: rgb(255, 255, 255);" cx="49.333" cy="101.293" rx="6.299" ry="8.845"/><ellipse style="fill: rgb(255, 255, 255);" cx="31.545" cy="115.474" rx="23.003" ry="15.606"/><path class="st0" d="M 48.028 120.553 C 50.515 118.293 52.098 115.805 52.776 113.545 L 60.689 109.022 C 62.046 109.701 63.629 109.701 64.985 109.022 C 67.021 107.892 67.925 105.179 66.568 103.144 C 66.115 102.466 65.664 102.013 64.985 101.56 C 64.985 100.883 64.759 99.979 64.534 99.3 C 63.403 97.265 60.689 96.588 58.654 97.718 C 57.297 98.622 56.393 99.979 56.393 101.56 L 48.481 106.083 C 45.088 105.179 40.115 105.857 35.592 108.57 C 32.201 110.604 29.488 113.092 28.132 115.805" style="fill: none; stroke: rgb(0, 0, 0); stroke-linecap: round; stroke-linejoin: round; stroke-miterlimit: 10; stroke-width: 3px;"/><path class="st0" d="M 53.455 113.092 C 53.906 114.449 54.133 116.032 54.133 117.388 C 54.133 127.788 43.958 130.275 31.524 130.275 C 19.088 130.275 8.914 127.788 8.914 117.388 C 8.914 106.988 19.088 98.622 31.524 98.622 C 38.759 98.622 45.088 101.336 49.158 105.631" style="fill: none; stroke: rgb(0, 0, 0); stroke-linecap: round; stroke-linejoin: round; stroke-miterlimit: 10; stroke-width: 3px;"/><path class="st0" d="M 55.716 101.787 C 56.167 100.656 55.941 99.526 55.263 98.396 C 54.811 97.718 54.359 97.265 53.68 96.812 C 53.68 96.135 53.455 95.231 53.229 94.552 C 52.098 92.517 49.385 91.839 47.35 92.969 C 45.993 93.874 45.088 95.231 45.088 96.812 L 39.889 99.752" style="fill: none; stroke: rgb(0, 0, 0); stroke-linecap: round; stroke-linejoin: round; stroke-miterlimit: 10; stroke-width: 3px;"/></svg>